<?xml version="1.0" encoding="UTF-8" standalone="no"?>
<!-- Created with Inkscape (http://www.inkscape.org/) -->

<svg
   xmlns:dc="http://purl.org/dc/elements/1.1/"
   xmlns:cc="http://creativecommons.org/ns#"
   xmlns:rdf="http://www.w3.org/1999/02/22-rdf-syntax-ns#"
   xmlns:svg="http://www.w3.org/2000/svg"
   xmlns="http://www.w3.org/2000/svg"
   xmlns:sodipodi="http://sodipodi.sourceforge.net/DTD/sodipodi-0.dtd"
   xmlns:inkscape="http://www.inkscape.org/namespaces/inkscape"
   width="360"
   height="640"
   viewBox="0 0 95.249998 169.33334"
   version="1.1"
   id="svg5111"
   inkscape:version="0.92.0 r"
   sodipodi:docname="back.svg">
  <defs
     id="defs5105" />
  <sodipodi:namedview
     id="base"
     pagecolor="#ffffff"
     bordercolor="#666666"
     borderopacity="1.0"
     inkscape:pageopacity="0.0"
     inkscape:pageshadow="2"
     inkscape:zoom="0.98994949"
     inkscape:cx="231.98906"
     inkscape:cy="327.59282"
     inkscape:document-units="px"
     inkscape:current-layer="layer1"
     showgrid="false"
     units="px"
     inkscape:window-width="1562"
     inkscape:window-height="900"
     inkscape:window-x="38"
     inkscape:window-y="0"
     inkscape:window-maximized="1" />
  <metadata
     id="metadata5108">
    <rdf:RDF>
      <cc:Work
         rdf:about="">
        <dc:format>image/svg+xml</dc:format>
        <dc:type
           rdf:resource="http://purl.org/dc/dcmitype/StillImage" />
        <dc:title></dc:title>
      </cc:Work>
    </rdf:RDF>
  </metadata>
  <g
     inkscape:label="Layer 1"
     inkscape:groupmode="layer"
     id="layer1"
     transform="translate(0,-127.66666)">
    <rect
       style="opacity:1;fill:#f4f8ff;fill-opacity:0.1891892;stroke:none;stroke-width:2.96557021;stroke-linecap:round;stroke-linejoin:round;stroke-miterlimit:4;stroke-dasharray:none;stroke-opacity:1"
       id="rect5688"
       width="95.25"
       height="169.33333"
       x="0"
       y="127.66666" />
    <path
       style="color:#000000;font-style:normal;font-variant:normal;font-weight:normal;font-stretch:normal;font-size:medium;line-height:normal;font-family:sans-serif;font-variant-ligatures:normal;font-variant-position:normal;font-variant-caps:normal;font-variant-numeric:normal;font-variant-alternates:normal;font-feature-settings:normal;text-indent:0;text-align:start;text-decoration:none;text-decoration-line:none;text-decoration-style:solid;text-decoration-color:#000000;letter-spacing:normal;word-spacing:normal;text-transform:none;writing-mode:lr-tb;direction:ltr;text-orientation:mixed;dominant-baseline:auto;baseline-shift:baseline;text-anchor:start;white-space:normal;shape-padding:0;clip-rule:nonzero;display:inline;overflow:visible;visibility:visible;opacity:1;isolation:auto;mix-blend-mode:normal;color-interpolation:sRGB;color-interpolation-filters:linearRGB;solid-color:#000000;solid-opacity:1;vector-effect:none;fill:#12a1cf;fill-opacity:0.0627451;fill-rule:evenodd;stroke:none;stroke-width:7.39186335;stroke-linecap:round;stroke-linejoin:round;stroke-miterlimit:4;stroke-dasharray:none;stroke-dashoffset:0;stroke-opacity:1;color-rendering:auto;image-rendering:auto;shape-rendering:auto;text-rendering:auto;enable-background:accumulate"
       d="m 80.655017,156.92624 c -2.326806,-0.11313 -4.10009,0.62606 -5.85623,1.38273 -1.805141,0.77736 -3.590779,1.68375 -5.31402,2.37227 -3.446482,1.37718 -5.866918,1.86657 -8.160755,0.20336 l 0.365775,0.29845 c -2.871999,-2.69619 -5.838738,-3.82482 -8.147221,-4.06684 -2.308551,-0.24223 -4.28374,0.48793 -4.28374,0.48793 a 3.698193,3.698193 0 1 0 2.8332,6.83224 c 0,0 -0.07843,-0.0555 0.678108,0.0278 0.756191,0.0791 2.028494,0.37827 3.86348,2.10116 a 3.6963012,3.6963012 0 0 0 0.352589,0.29845 c 5.079702,3.68316 11.009503,2.36707 15.237023,0.67811 2.113796,-0.84468 3.992162,-1.79494 5.490246,-2.44015 1.498084,-0.64548 2.651562,-0.83614 2.589234,-0.84045 a 3.6963012,3.6963012 0 0 0 0.271382,0.0139 c 2.721594,-0.007 4.003405,0.88779 6.249351,2.23679 2.245947,1.349 5.720816,3.14595 10.112832,2.37234 a 3.6963012,3.6963012 0 1 0 -1.274246,-7.27964 c -2.189935,0.38591 -2.89886,-0.15755 -5.029312,-1.43693 -2.107271,-1.26571 -5.386274,-3.20939 -9.97728,-3.23993 z"
       id="path4857"
       inkscape:connector-curvature="0" />
    <path
       style="color:#000000;font-style:normal;font-variant:normal;font-weight:normal;font-stretch:normal;font-size:medium;line-height:normal;font-family:sans-serif;font-variant-ligatures:normal;font-variant-position:normal;font-variant-caps:normal;font-variant-numeric:normal;font-variant-alternates:normal;font-feature-settings:normal;text-indent:0;text-align:start;text-decoration:none;text-decoration-line:none;text-decoration-style:solid;text-decoration-color:#000000;letter-spacing:normal;word-spacing:normal;text-transform:none;writing-mode:lr-tb;direction:ltr;text-orientation:mixed;dominant-baseline:auto;baseline-shift:baseline;text-anchor:start;white-space:normal;shape-padding:0;clip-rule:nonzero;display:inline;overflow:visible;visibility:visible;opacity:1;isolation:auto;mix-blend-mode:normal;color-interpolation:sRGB;color-interpolation-filters:linearRGB;solid-color:#000000;solid-opacity:1;vector-effect:none;fill:#12a1cf;fill-opacity:0.0627451;fill-rule:evenodd;stroke:none;stroke-width:7.39186335;stroke-linecap:round;stroke-linejoin:round;stroke-miterlimit:4;stroke-dasharray:none;stroke-dashoffset:0;stroke-opacity:1;color-rendering:auto;image-rendering:auto;shape-rendering:auto;text-rendering:auto;enable-background:accumulate"
       d="m 110.09885,174.31871 c -2.3268,-0.11244 -4.10009,0.62605 -5.85623,1.38273 -1.80514,0.77734 -3.59078,1.68365 -5.314016,2.37224 -3.446482,1.37718 -5.853384,1.86657 -8.147221,0.20337 l 0.352588,0.29845 c -2.871929,-2.6961 -5.838669,-3.8248 -8.147151,-4.06683 -2.308552,-0.24223 -4.283741,0.48794 -4.283741,0.48794 a 3.6982218,3.6982218 0 1 0 2.8332,6.83228 c 0,0 -0.07843,-0.0555 0.678108,0.0278 0.756191,0.0791 2.028425,0.37827 3.863481,2.10116 a 3.6963012,3.6963012 0 0 0 0.365775,0.29845 c 5.079772,3.6831 10.995969,2.36707 15.223487,0.67811 2.1138,-0.84468 4.0057,-1.79494 5.50378,-2.44014 1.49809,-0.64549 2.63796,-0.83615 2.57563,-0.84046 a 3.6963012,3.6963012 0 0 0 0.27138,0.0139 c 2.72153,-0.007 4.01694,0.88778 6.26289,2.23678 2.24595,1.349 5.72089,3.14595 10.11283,2.37227 a 3.6963012,3.6963012 0 1 0 -1.28778,-7.27956 c -2.18993,0.3859 -2.88532,-0.15756 -5.01578,-1.43694 -2.10727,-1.26571 -5.39973,-3.20937 -9.99081,-3.23991 z"
       id="path4859"
       inkscape:connector-curvature="0" />
    <path
       style="color:#000000;font-style:normal;font-variant:normal;font-weight:normal;font-stretch:normal;font-size:medium;line-height:normal;font-family:sans-serif;font-variant-ligatures:normal;font-variant-position:normal;font-variant-caps:normal;font-variant-numeric:normal;font-variant-alternates:normal;font-feature-settings:normal;text-indent:0;text-align:start;text-decoration:none;text-decoration-line:none;text-decoration-style:solid;text-decoration-color:#000000;letter-spacing:normal;word-spacing:normal;text-transform:none;writing-mode:lr-tb;direction:ltr;text-orientation:mixed;dominant-baseline:auto;baseline-shift:baseline;text-anchor:start;white-space:normal;shape-padding:0;clip-rule:nonzero;display:inline;overflow:visible;visibility:visible;opacity:1;isolation:auto;mix-blend-mode:normal;color-interpolation:sRGB;color-interpolation-filters:linearRGB;solid-color:#000000;solid-opacity:1;vector-effect:none;fill:#12a1cf;fill-opacity:0.0627451;fill-rule:evenodd;stroke:none;stroke-width:7.39186335;stroke-linecap:round;stroke-linejoin:round;stroke-miterlimit:4;stroke-dasharray:none;stroke-dashoffset:0;stroke-opacity:1;color-rendering:auto;image-rendering:auto;shape-rendering:auto;text-rendering:auto;enable-background:accumulate"
       d="m 111.75269,157.64468 c -2.13504,-0.0208 -3.60591,0.43379 -3.60591,0.43379 a 3.6996272,3.6996272 0 1 0 2.29092,7.03567 c 0,0 2.13614,-0.80075 4.55484,0.94893 4.98392,3.60536 10.35687,2.779 10.35687,2.779 a 3.69634,3.69634 0 1 0 -1.28785,-7.27964 c 0,0 -2.00864,0.47822 -4.73107,-1.49121 -2.64386,-1.91251 -5.44284,-2.406 -7.5778,-2.42654 z"
       id="path4861"
       inkscape:connector-curvature="0" />
    <path
       style="color:#000000;font-style:normal;font-variant:normal;font-weight:normal;font-stretch:normal;font-size:medium;line-height:normal;font-family:sans-serif;font-variant-ligatures:normal;font-variant-position:normal;font-variant-caps:normal;font-variant-numeric:normal;font-variant-alternates:normal;font-feature-settings:normal;text-indent:0;text-align:start;text-decoration:none;text-decoration-line:none;text-decoration-style:solid;text-decoration-color:#000000;letter-spacing:normal;word-spacing:normal;text-transform:none;writing-mode:lr-tb;direction:ltr;text-orientation:mixed;dominant-baseline:auto;baseline-shift:baseline;text-anchor:start;white-space:normal;shape-padding:0;clip-rule:nonzero;display:inline;overflow:visible;visibility:visible;opacity:1;isolation:auto;mix-blend-mode:normal;color-interpolation:sRGB;color-interpolation-filters:linearRGB;solid-color:#000000;solid-opacity:1;vector-effect:none;fill:#09455d;fill-opacity:0.0627451;fill-rule:evenodd;stroke:none;stroke-width:7.39186335;stroke-linecap:round;stroke-linejoin:round;stroke-miterlimit:4;stroke-dasharray:none;stroke-dashoffset:0;stroke-opacity:1;color-rendering:auto;image-rendering:auto;shape-rendering:auto;text-rendering:auto;enable-background:accumulate"
       d="m 50.058952,174.86092 a 3.6982282,3.6982282 0 1 0 0.569138,7.37449 c 0,0 3.068352,-0.24154 6.642474,1.78945 l -0.257501,-0.17629 c 2.257329,1.5466 4.567755,1.83845 6.384904,1.99268 1.817149,0.15408 3.294133,0.0416 3.294133,0.0416 a 3.6987608,3.6987608 0 1 0 -0.58302,-7.37451 c 0,0 -0.895213,0.0743 -2.087698,-0.0278 -1.192415,-0.10134 -2.52066,-0.50459 -2.8332,-0.71851 a 3.6963012,3.6963012 0 0 0 -0.257501,-0.17629 c -5.509055,-3.13059 -10.871938,-2.72477 -10.871938,-2.72477 z"
       id="path4863"
       inkscape:connector-curvature="0" />
    <path
       style="color:#000000;font-style:normal;font-variant:normal;font-weight:normal;font-stretch:normal;font-size:medium;line-height:normal;font-family:sans-serif;font-variant-ligatures:normal;font-variant-position:normal;font-variant-caps:normal;font-variant-numeric:normal;font-variant-alternates:normal;font-feature-settings:normal;text-indent:0;text-align:start;text-decoration:none;text-decoration-line:none;text-decoration-style:solid;text-decoration-color:#000000;letter-spacing:normal;word-spacing:normal;text-transform:none;writing-mode:lr-tb;direction:ltr;text-orientation:mixed;dominant-baseline:auto;baseline-shift:baseline;text-anchor:start;white-space:normal;shape-padding:0;clip-rule:nonzero;display:inline;overflow:visible;visibility:visible;opacity:1;isolation:auto;mix-blend-mode:normal;color-interpolation:sRGB;color-interpolation-filters:linearRGB;solid-color:#000000;solid-opacity:1;vector-effect:none;fill:#09455d;fill-opacity:0.0627451;fill-rule:evenodd;stroke:none;stroke-width:7.39186335;stroke-linecap:round;stroke-linejoin:round;stroke-miterlimit:4;stroke-dasharray:none;stroke-dashoffset:0;stroke-opacity:1;color-rendering:auto;image-rendering:auto;shape-rendering:auto;text-rendering:auto;enable-background:accumulate"
       d="m 80.790569,191.26382 c -4.773617,-0.19087 -8.077397,1.74649 -10.872007,4.20233 a 3.6963012,3.6963012 0 0 0 -0.135344,0.12215 c -0.02082,0.0208 -2.12969,0.96504 -4.365017,0.94894 -2.235396,-0.0139 -4.482453,-0.82095 -5.110657,-1.38273 a 3.6963012,3.6963012 0 0 0 -0.203363,-0.16241 c -5.024038,-3.88222 -10.885542,-2.62984 -10.885542,-2.62984 a 3.6980645,3.6980645 0 1 0 1.45054,7.25249 c 0,0 2.730547,-0.47266 4.920829,1.22004 l -0.203363,-0.16241 c 2.856036,2.55363 6.504701,3.22847 9.97728,3.25346 3.472648,0.0278 6.885954,-0.41992 9.570623,-3.02296 l -0.135344,0.12216 c 2.616233,-2.29905 2.26892,-2.50928 5.693539,-2.37227 0.632299,0.0278 2.585486,0.86162 4.649724,2.10116 2.056465,1.23489 4.005349,2.94432 7.374511,3.13144 2.924055,0.29013 8.928812,0.95359 13.447642,-3.56523 1.38467,-1.38468 3.64207,-1.04909 6.27649,-0.9218 0.004,2.1e-4 0.007,-2.1e-4 0.0139,0 1.43416,0.0861 2.32541,0.69581 4.21593,1.83006 1.89571,1.13737 4.84996,2.61755 8.66236,2.3452 a 3.6967259,3.6967259 0 1 0 -0.52888,-7.37451 c -1.92626,0.13742 -2.69814,-0.33108 -4.33795,-1.31492 -1.63982,-0.98385 -4.08607,-2.67003 -7.60495,-2.87388 a 3.6963012,3.6963012 0 0 0 -0.0416,0 c -0.79457,-0.0347 -7.37659,-1.42132 -11.88868,3.09077 -1.944514,1.94452 -4.693176,1.72644 -7.632084,1.43694 a 3.6963012,3.6963012 0 0 0 -0.176294,-0.0139 c 0.236678,0.0139 -1.817427,-0.79929 -3.985498,-2.10123 -2.168072,-1.30194 -4.68075,-3.02005 -8.147221,-3.15851 z"
       id="path4865"
       inkscape:connector-curvature="0" />
    <path
       inkscape:connector-curvature="0"
       id="path5690"
       d="m -25.93427,230.6316 c -2.326806,-0.11313 -4.10009,0.62606 -5.85623,1.38273 -1.805141,0.77736 -3.590779,1.68375 -5.31402,2.37227 -3.446482,1.37718 -5.866918,1.86657 -8.160755,0.20336 l 0.365775,0.29845 c -2.871999,-2.69619 -5.838738,-3.82482 -8.147221,-4.06684 -2.308551,-0.24223 -4.28374,0.48793 -4.28374,0.48793 a 3.698193,3.698193 0 1 0 2.8332,6.83224 c 0,0 -0.07843,-0.0555 0.678108,0.0278 0.756191,0.0791 2.028494,0.37827 3.86348,2.10116 a 3.6963012,3.6963012 0 0 0 0.352589,0.29845 c 5.079702,3.68316 11.009503,2.36707 15.237023,0.67811 2.113796,-0.84468 3.992162,-1.79494 5.490246,-2.44015 1.498084,-0.64548 2.651562,-0.83614 2.589234,-0.84045 a 3.6963012,3.6963012 0 0 0 0.271382,0.0139 c 2.721594,-0.007 4.003405,0.88779 6.249351,2.23679 2.245947,1.349 5.720816,3.14595 10.1128323,2.37234 a 3.6963012,3.6963012 0 1 0 -1.2742463,-7.27964 c -2.189935,0.38591 -2.89886,-0.15755 -5.029312,-1.43693 -2.107271,-1.26571 -5.386274,-3.20939 -9.97728,-3.23993 z"
       style="color:#000000;font-style:normal;font-variant:normal;font-weight:normal;font-stretch:normal;font-size:medium;line-height:normal;font-family:sans-serif;font-variant-ligatures:normal;font-variant-position:normal;font-variant-caps:normal;font-variant-numeric:normal;font-variant-alternates:normal;font-feature-settings:normal;text-indent:0;text-align:start;text-decoration:none;text-decoration-line:none;text-decoration-style:solid;text-decoration-color:#000000;letter-spacing:normal;word-spacing:normal;text-transform:none;writing-mode:lr-tb;direction:ltr;text-orientation:mixed;dominant-baseline:auto;baseline-shift:baseline;text-anchor:start;white-space:normal;shape-padding:0;clip-rule:nonzero;display:inline;overflow:visible;visibility:visible;opacity:1;isolation:auto;mix-blend-mode:normal;color-interpolation:sRGB;color-interpolation-filters:linearRGB;solid-color:#000000;solid-opacity:1;vector-effect:none;fill:#12a1cf;fill-opacity:0.0627451;fill-rule:evenodd;stroke:none;stroke-width:7.39186335;stroke-linecap:round;stroke-linejoin:round;stroke-miterlimit:4;stroke-dasharray:none;stroke-dashoffset:0;stroke-opacity:1;color-rendering:auto;image-rendering:auto;shape-rendering:auto;text-rendering:auto;enable-background:accumulate" />
    <path
       inkscape:connector-curvature="0"
       id="path5692"
       d="m 3.5095633,248.02407 c -2.3268,-0.11244 -4.10009005,0.62605 -5.85623,1.38273 -1.80514,0.77734 -3.59078,1.68365 -5.314016,2.37224 -3.4464823,1.37718 -5.8533843,1.86657 -8.1472213,0.20337 l 0.352588,0.29845 c -2.871929,-2.6961 -5.838669,-3.8248 -8.147151,-4.06683 -2.308552,-0.24223 -4.283741,0.48794 -4.283741,0.48794 a 3.6982218,3.6982218 0 1 0 2.8332,6.83228 c 0,0 -0.07843,-0.0555 0.678108,0.0278 0.756191,0.0791 2.028425,0.37827 3.863481,2.10116 a 3.6963012,3.6963012 0 0 0 0.365775,0.29845 c 5.079772,3.6831 10.9959693,2.36707 15.2234873,0.67811 2.1138,-0.84468 4.00569995,-1.79494 5.50377995,-2.44014 1.49809005,-0.64549 2.63796005,-0.83615 2.57563005,-0.84046 a 3.6963012,3.6963012 0 0 0 0.27138,0.0139 c 2.72153,-0.007 4.01694,0.88778 6.26289,2.23678 2.2459497,1.349 5.7208897,3.14595 10.1128297,2.37227 a 3.6963012,3.6963012 0 1 0 -1.28778,-7.27956 c -2.18993,0.3859 -2.88532,-0.15756 -5.01578,-1.43694 -2.10727,-1.26571 -5.3997297,-3.20937 -9.9908097,-3.23991 z"
       style="color:#000000;font-style:normal;font-variant:normal;font-weight:normal;font-stretch:normal;font-size:medium;line-height:normal;font-family:sans-serif;font-variant-ligatures:normal;font-variant-position:normal;font-variant-caps:normal;font-variant-numeric:normal;font-variant-alternates:normal;font-feature-settings:normal;text-indent:0;text-align:start;text-decoration:none;text-decoration-line:none;text-decoration-style:solid;text-decoration-color:#000000;letter-spacing:normal;word-spacing:normal;text-transform:none;writing-mode:lr-tb;direction:ltr;text-orientation:mixed;dominant-baseline:auto;baseline-shift:baseline;text-anchor:start;white-space:normal;shape-padding:0;clip-rule:nonzero;display:inline;overflow:visible;visibility:visible;opacity:1;isolation:auto;mix-blend-mode:normal;color-interpolation:sRGB;color-interpolation-filters:linearRGB;solid-color:#000000;solid-opacity:1;vector-effect:none;fill:#12a1cf;fill-opacity:0.0627451;fill-rule:evenodd;stroke:none;stroke-width:7.39186335;stroke-linecap:round;stroke-linejoin:round;stroke-miterlimit:4;stroke-dasharray:none;stroke-dashoffset:0;stroke-opacity:1;color-rendering:auto;image-rendering:auto;shape-rendering:auto;text-rendering:auto;enable-background:accumulate" />
    <path
       inkscape:connector-curvature="0"
       id="path5694"
       d="m 5.1634033,231.35004 c -2.13504,-0.0208 -3.60591,0.43379 -3.60591,0.43379 a 3.6996272,3.6996272 0 1 0 2.29092,7.03567 c 0,0 2.13614,-0.80075 4.55484,0.94893 4.9839197,3.60536 10.3568697,2.779 10.3568697,2.779 a 3.69634,3.69634 0 1 0 -1.28785,-7.27964 c 0,0 -2.00864,0.47822 -4.73107,-1.49121 -2.64386,-1.91251 -5.4428397,-2.406 -7.5777997,-2.42654 z"
       style="color:#000000;font-style:normal;font-variant:normal;font-weight:normal;font-stretch:normal;font-size:medium;line-height:normal;font-family:sans-serif;font-variant-ligatures:normal;font-variant-position:normal;font-variant-caps:normal;font-variant-numeric:normal;font-variant-alternates:normal;font-feature-settings:normal;text-indent:0;text-align:start;text-decoration:none;text-decoration-line:none;text-decoration-style:solid;text-decoration-color:#000000;letter-spacing:normal;word-spacing:normal;text-transform:none;writing-mode:lr-tb;direction:ltr;text-orientation:mixed;dominant-baseline:auto;baseline-shift:baseline;text-anchor:start;white-space:normal;shape-padding:0;clip-rule:nonzero;display:inline;overflow:visible;visibility:visible;opacity:1;isolation:auto;mix-blend-mode:normal;color-interpolation:sRGB;color-interpolation-filters:linearRGB;solid-color:#000000;solid-opacity:1;vector-effect:none;fill:#12a1cf;fill-opacity:0.0627451;fill-rule:evenodd;stroke:none;stroke-width:7.39186335;stroke-linecap:round;stroke-linejoin:round;stroke-miterlimit:4;stroke-dasharray:none;stroke-dashoffset:0;stroke-opacity:1;color-rendering:auto;image-rendering:auto;shape-rendering:auto;text-rendering:auto;enable-background:accumulate" />
    <path
       inkscape:connector-curvature="0"
       id="path5696"
       d="m -56.530335,248.56628 a 3.6982282,3.6982282 0 1 0 0.569138,7.37449 c 0,0 3.068352,-0.24154 6.642474,1.78945 l -0.257501,-0.17629 c 2.257329,1.5466 4.567755,1.83845 6.384904,1.99268 1.817149,0.15408 3.294133,0.0416 3.294133,0.0416 a 3.6987608,3.6987608 0 1 0 -0.58302,-7.37451 c 0,0 -0.895213,0.0743 -2.087698,-0.0278 -1.192415,-0.10134 -2.52066,-0.50459 -2.8332,-0.71851 a 3.6963012,3.6963012 0 0 0 -0.257501,-0.17629 c -5.509055,-3.13059 -10.871938,-2.72477 -10.871938,-2.72477 z"
       style="color:#000000;font-style:normal;font-variant:normal;font-weight:normal;font-stretch:normal;font-size:medium;line-height:normal;font-family:sans-serif;font-variant-ligatures:normal;font-variant-position:normal;font-variant-caps:normal;font-variant-numeric:normal;font-variant-alternates:normal;font-feature-settings:normal;text-indent:0;text-align:start;text-decoration:none;text-decoration-line:none;text-decoration-style:solid;text-decoration-color:#000000;letter-spacing:normal;word-spacing:normal;text-transform:none;writing-mode:lr-tb;direction:ltr;text-orientation:mixed;dominant-baseline:auto;baseline-shift:baseline;text-anchor:start;white-space:normal;shape-padding:0;clip-rule:nonzero;display:inline;overflow:visible;visibility:visible;opacity:1;isolation:auto;mix-blend-mode:normal;color-interpolation:sRGB;color-interpolation-filters:linearRGB;solid-color:#000000;solid-opacity:1;vector-effect:none;fill:#09455d;fill-opacity:0.0627451;fill-rule:evenodd;stroke:none;stroke-width:7.39186335;stroke-linecap:round;stroke-linejoin:round;stroke-miterlimit:4;stroke-dasharray:none;stroke-dashoffset:0;stroke-opacity:1;color-rendering:auto;image-rendering:auto;shape-rendering:auto;text-rendering:auto;enable-background:accumulate" />
    <path
       inkscape:connector-curvature="0"
       id="path5698"
       d="m -25.798718,264.96918 c -4.773617,-0.19087 -8.077397,1.74649 -10.872007,4.20233 a 3.6963012,3.6963012 0 0 0 -0.135344,0.12215 c -0.02082,0.0208 -2.12969,0.96504 -4.365017,0.94894 -2.235396,-0.0139 -4.482453,-0.82095 -5.110657,-1.38273 a 3.6963012,3.6963012 0 0 0 -0.203363,-0.16241 c -5.024038,-3.88222 -10.885542,-2.62984 -10.885542,-2.62984 a 3.6980645,3.6980645 0 1 0 1.45054,7.25249 c 0,0 2.730547,-0.47266 4.920829,1.22004 l -0.203363,-0.16241 c 2.856036,2.55363 6.504701,3.22847 9.97728,3.25346 3.472648,0.0278 6.885954,-0.41992 9.570623,-3.02296 l -0.135344,0.12216 c 2.616233,-2.29905 2.26892,-2.50928 5.693539,-2.37227 0.632299,0.0278 2.585486,0.86162 4.649724,2.10116 2.056465,1.23489 4.005349,2.94432 7.374511,3.13144 2.924055,0.29013 8.9288123,0.95359 13.44764225,-3.56523 1.38467,-1.38468 3.64207005,-1.04909 6.27649005,-0.9218 0.004,2.1e-4 0.007,-2.1e-4 0.0139,0 1.43416,0.0861 2.32541,0.69581 4.21593,1.83006 1.8957097,1.13737 4.8499597,2.61755 8.6623597,2.3452 a 3.6967259,3.6967259 0 1 0 -0.52888,-7.37451 c -1.92626,0.13742 -2.69814,-0.33108 -4.33795,-1.31492 -1.63982,-0.98385 -4.0860697,-2.67003 -7.6049497,-2.87388 a 3.6963012,3.6963012 0 0 0 -0.0416,0 c -0.79457,-0.0347 -7.37659,-1.42132 -11.88868,3.09077 -1.944514,1.94452 -4.6931763,1.72644 -7.6320843,1.43694 a 3.6963012,3.6963012 0 0 0 -0.176294,-0.0139 c 0.236678,0.0139 -1.817427,-0.79929 -3.985498,-2.10123 -2.168072,-1.30194 -4.68075,-3.02005 -8.147221,-3.15851 z"
       style="color:#000000;font-style:normal;font-variant:normal;font-weight:normal;font-stretch:normal;font-size:medium;line-height:normal;font-family:sans-serif;font-variant-ligatures:normal;font-variant-position:normal;font-variant-caps:normal;font-variant-numeric:normal;font-variant-alternates:normal;font-feature-settings:normal;text-indent:0;text-align:start;text-decoration:none;text-decoration-line:none;text-decoration-style:solid;text-decoration-color:#000000;letter-spacing:normal;word-spacing:normal;text-transform:none;writing-mode:lr-tb;direction:ltr;text-orientation:mixed;dominant-baseline:auto;baseline-shift:baseline;text-anchor:start;white-space:normal;shape-padding:0;clip-rule:nonzero;display:inline;overflow:visible;visibility:visible;opacity:1;isolation:auto;mix-blend-mode:normal;color-interpolation:sRGB;color-interpolation-filters:linearRGB;solid-color:#000000;solid-opacity:1;vector-effect:none;fill:#09455d;fill-opacity:0.0627451;fill-rule:evenodd;stroke:none;stroke-width:7.39186335;stroke-linecap:round;stroke-linejoin:round;stroke-miterlimit:4;stroke-dasharray:none;stroke-dashoffset:0;stroke-opacity:1;color-rendering:auto;image-rendering:auto;shape-rendering:auto;text-rendering:auto;enable-background:accumulate" />
  </g>
</svg>
