<?xml version="1.0" encoding="UTF-8" standalone="no"?>
<!-- Created with Inkscape (http://www.inkscape.org/) -->

<svg
   xmlns:dc="http://purl.org/dc/elements/1.1/"
   xmlns:cc="http://creativecommons.org/ns#"
   xmlns:rdf="http://www.w3.org/1999/02/22-rdf-syntax-ns#"
   xmlns:svg="http://www.w3.org/2000/svg"
   xmlns="http://www.w3.org/2000/svg"
   xmlns:sodipodi="http://sodipodi.sourceforge.net/DTD/sodipodi-0.dtd"
   xmlns:inkscape="http://www.inkscape.org/namespaces/inkscape"
   width="450"
   height="120"
   viewBox="0 0 119.0625 31.750001"
   version="1.1"
   id="svg4585"
   inkscape:version="0.92.0 r"
   sodipodi:docname="cucikan.svg">
  <defs
     id="defs4579" />
  <sodipodi:namedview
     id="base"
     pagecolor="#ffffff"
     bordercolor="#666666"
     borderopacity="1.0"
     inkscape:pageopacity="0.0"
     inkscape:pageshadow="2"
     inkscape:zoom="0.98994949"
     inkscape:cx="71.068748"
     inkscape:cy="76.08555"
     inkscape:document-units="mm"
     inkscape:current-layer="layer1"
     showgrid="false"
     units="px"
     inkscape:window-width="1562"
     inkscape:window-height="900"
     inkscape:window-x="38"
     inkscape:window-y="0"
     inkscape:window-maximized="1" />
  <metadata
     id="metadata4582">
    <rdf:RDF>
      <cc:Work
         rdf:about="">
        <dc:format>image/svg+xml</dc:format>
        <dc:type
           rdf:resource="http://purl.org/dc/dcmitype/StillImage" />
        <dc:title />
      </cc:Work>
    </rdf:RDF>
  </metadata>
  <g
     inkscape:label="Layer 1"
     inkscape:groupmode="layer"
     id="layer1"
     transform="translate(0,-265.24998)">
    <rect
       style="opacity:1;fill:none;fill-opacity:1;stroke:none;stroke-width:1.98872054;stroke-linecap:round;stroke-linejoin:round;stroke-miterlimit:4;stroke-dasharray:none;stroke-opacity:1"
       id="rect4505"
       width="119.0625"
       height="31.75"
       x="-2.9172736e-07"
       y="265.24997"
       inkscape:export-xdpi="96"
       inkscape:export-ydpi="96" />
    <g
       id="g4512"
       transform="translate(-0.0073356,1.1577554)">
      <text
         inkscape:export-ydpi="96"
         inkscape:export-xdpi="96"
         id="text4487"
         y="286.07504"
         x="41.946159"
         style="font-style:normal;font-weight:normal;font-size:19.72650337px;line-height:12.32906437px;font-family:sans-serif;letter-spacing:0px;word-spacing:0px;fill:#000000;fill-opacity:1;stroke:none;stroke-width:0.4931626px;stroke-linecap:butt;stroke-linejoin:miter;stroke-opacity:1"
         xml:space="preserve"><tspan
           style="font-style:normal;font-variant:normal;font-weight:bold;font-stretch:normal;font-family:Bariol;-inkscape-font-specification:'Bariol Bold';letter-spacing:0.94687223px;fill:#12a1cf;fill-opacity:0.94117647;stroke-width:0.4931626px"
           y="286.07504"
           x="41.946159"
           id="tspan4485"
           sodipodi:role="line">cuci<tspan
   id="tspan4489"
   style="font-style:normal;font-variant:normal;font-weight:bold;font-stretch:normal;font-family:Bariol;-inkscape-font-specification:'Bariol Bold';letter-spacing:0.94687223px;fill:#09455d;fill-opacity:1;stroke-width:0.4931626px">kan</tspan></tspan></text>
      <g
         transform="matrix(1.8639217,0,0,1.8639217,10.537387,191.27938)"
         id="g4546">
        <path
           style="color:#000000;font-style:normal;font-variant:normal;font-weight:normal;font-stretch:normal;font-size:medium;line-height:normal;font-family:sans-serif;font-variant-ligatures:normal;font-variant-position:normal;font-variant-caps:normal;font-variant-numeric:normal;font-variant-alternates:normal;font-feature-settings:normal;text-indent:0;text-align:start;text-decoration:none;text-decoration-line:none;text-decoration-style:solid;text-decoration-color:#000000;letter-spacing:normal;word-spacing:normal;text-transform:none;writing-mode:lr-tb;direction:ltr;text-orientation:mixed;dominant-baseline:auto;baseline-shift:baseline;text-anchor:start;white-space:normal;shape-padding:0;clip-rule:nonzero;display:inline;overflow:visible;visibility:visible;opacity:1;isolation:auto;mix-blend-mode:normal;color-interpolation:sRGB;color-interpolation-filters:linearRGB;solid-color:#000000;solid-opacity:1;vector-effect:none;fill:#12a1cf;fill-opacity:0.94117647;fill-rule:evenodd;stroke:none;stroke-width:1.06500006;stroke-linecap:round;stroke-linejoin:round;stroke-miterlimit:4;stroke-dasharray:none;stroke-dashoffset:0;stroke-opacity:1;color-rendering:auto;image-rendering:auto;shape-rendering:auto;text-rendering:auto;enable-background:accumulate"
           d="m 6.1054634,45.043474 c -0.33524,-0.0163 -0.59073,0.0902 -0.84375,0.19922 -0.26008,0.112 -0.51735,0.24259 -0.76563,0.34179 -0.49656,0.19842 -0.84529,0.26893 -1.17578,0.0293 l 0.0527,0.043 c -0.41379,-0.38846 -0.84123,-0.55107 -1.17383,-0.58594 -0.33261,-0.0349 -0.61719,0.0703 -0.61719,0.0703 a 0.53282538,0.53282538 0 1 0 0.4082,0.98437 c 0,0 -0.0113,-0.008 0.0977,0.004 0.10895,0.0114 0.29226,0.0545 0.55664,0.30273 a 0.53255328,0.53255328 0 0 0 0.0508,0.043 c 0.73187,0.53066 1.58622,0.34104 2.19531,0.0977 0.30455,-0.1217 0.57518,-0.25861 0.79102,-0.35157 0.21584,-0.093 0.38203,-0.12047 0.37305,-0.12109 a 0.53255328,0.53255328 0 0 0 0.0391,0.002 c 0.39212,-10e-4 0.5768,0.12791 0.90039,0.32227 0.32359,0.19436 0.82424,0.45326 1.45703,0.3418 a 0.53255328,0.53255328 0 1 0 -0.18359,-1.04883 c -0.31552,0.0556 -0.41766,-0.0227 -0.72461,-0.20703 -0.30361,-0.18236 -0.77604,-0.4624 -1.4375,-0.4668 z"
           id="path4566"
           inkscape:connector-curvature="0"
           inkscape:export-xdpi="96"
           inkscape:export-ydpi="96" />
        <path
           style="color:#000000;font-style:normal;font-variant:normal;font-weight:normal;font-stretch:normal;font-size:medium;line-height:normal;font-family:sans-serif;font-variant-ligatures:normal;font-variant-position:normal;font-variant-caps:normal;font-variant-numeric:normal;font-variant-alternates:normal;font-feature-settings:normal;text-indent:0;text-align:start;text-decoration:none;text-decoration-line:none;text-decoration-style:solid;text-decoration-color:#000000;letter-spacing:normal;word-spacing:normal;text-transform:none;writing-mode:lr-tb;direction:ltr;text-orientation:mixed;dominant-baseline:auto;baseline-shift:baseline;text-anchor:start;white-space:normal;shape-padding:0;clip-rule:nonzero;display:inline;overflow:visible;visibility:visible;opacity:1;isolation:auto;mix-blend-mode:normal;color-interpolation:sRGB;color-interpolation-filters:linearRGB;solid-color:#000000;solid-opacity:1;vector-effect:none;fill:#12a1cf;fill-opacity:0.94117647;fill-rule:evenodd;stroke:none;stroke-width:1.06500006;stroke-linecap:round;stroke-linejoin:round;stroke-miterlimit:4;stroke-dasharray:none;stroke-dashoffset:0;stroke-opacity:1;color-rendering:auto;image-rendering:auto;shape-rendering:auto;text-rendering:auto;enable-background:accumulate"
           d="m 10.347653,47.549334 c -0.33524,-0.0162 -0.5907296,0.0902 -0.8437496,0.19922 -0.26008,0.112 -0.51735,0.24258 -0.76563,0.34179 -0.49656,0.19842 -0.84334,0.26893 -1.17383,0.0293 l 0.0508,0.043 c -0.41378,-0.38845 -0.84122,-0.55107 -1.17382,-0.58594 -0.33261,-0.0349 -0.61719,0.0703 -0.61719,0.0703 a 0.53283,0.53283 0 1 0 0.4082,0.98438 c 0,0 -0.0113,-0.008 0.0977,0.004 0.10895,0.0114 0.29225,0.0545 0.55664,0.30273 a 0.53255328,0.53255328 0 0 0 0.0527,0.043 c 0.73188,0.53065 1.58427,0.34104 2.19336,0.0977 0.30455,-0.1217 0.57713,-0.25861 0.79297,-0.35157 0.2158396,-0.093 0.3800696,-0.12047 0.3710896,-0.12109 a 0.53255328,0.53255328 0 0 0 0.0391,0.002 c 0.39211,-10e-4 0.57875,0.12791 0.90234,0.32227 0.32359,0.19436 0.82425,0.45326 1.45703,0.34179 a 0.53255328,0.53255328 0 1 0 -0.18554,-1.04882 c -0.31552,0.0556 -0.41571,-0.0227 -0.72266,-0.20703 -0.30361,-0.18236 -0.77798,-0.4624 -1.43945,-0.4668 z"
           id="path4568"
           inkscape:connector-curvature="0"
           inkscape:export-xdpi="96"
           inkscape:export-ydpi="96" />
        <path
           style="color:#000000;font-style:normal;font-variant:normal;font-weight:normal;font-stretch:normal;font-size:medium;line-height:normal;font-family:sans-serif;font-variant-ligatures:normal;font-variant-position:normal;font-variant-caps:normal;font-variant-numeric:normal;font-variant-alternates:normal;font-feature-settings:normal;text-indent:0;text-align:start;text-decoration:none;text-decoration-line:none;text-decoration-style:solid;text-decoration-color:#000000;letter-spacing:normal;word-spacing:normal;text-transform:none;writing-mode:lr-tb;direction:ltr;text-orientation:mixed;dominant-baseline:auto;baseline-shift:baseline;text-anchor:start;white-space:normal;shape-padding:0;clip-rule:nonzero;display:inline;overflow:visible;visibility:visible;opacity:1;isolation:auto;mix-blend-mode:normal;color-interpolation:sRGB;color-interpolation-filters:linearRGB;solid-color:#000000;solid-opacity:1;vector-effect:none;fill:#12a1cf;fill-opacity:0.94117647;fill-rule:evenodd;stroke:none;stroke-width:1.06500006;stroke-linecap:round;stroke-linejoin:round;stroke-miterlimit:4;stroke-dasharray:none;stroke-dashoffset:0;stroke-opacity:1;color-rendering:auto;image-rendering:auto;shape-rendering:auto;text-rendering:auto;enable-background:accumulate"
           d="m 10.585933,45.146984 c -0.30761,-0.003 -0.51953,0.0625 -0.51953,0.0625 a 0.53303221,0.53303221 0 1 0 0.33007,1.01368 c 0,0 0.30777,-0.11537 0.65625,0.13672 0.71807,0.51945 1.49219,0.40039 1.49219,0.40039 a 0.53255825,0.53255825 0 1 0 -0.18555,-1.04883 c 0,0 -0.2894,0.0689 -0.68164,-0.21485 -0.38092,-0.27555 -0.78419,-0.34665 -1.09179,-0.34961 z"
           id="path4570"
           inkscape:connector-curvature="0"
           inkscape:export-xdpi="96"
           inkscape:export-ydpi="96" />
        <path
           style="color:#000000;font-style:normal;font-variant:normal;font-weight:normal;font-stretch:normal;font-size:medium;line-height:normal;font-family:sans-serif;font-variant-ligatures:normal;font-variant-position:normal;font-variant-caps:normal;font-variant-numeric:normal;font-variant-alternates:normal;font-feature-settings:normal;text-indent:0;text-align:start;text-decoration:none;text-decoration-line:none;text-decoration-style:solid;text-decoration-color:#000000;letter-spacing:normal;word-spacing:normal;text-transform:none;writing-mode:lr-tb;direction:ltr;text-orientation:mixed;dominant-baseline:auto;baseline-shift:baseline;text-anchor:start;white-space:normal;shape-padding:0;clip-rule:nonzero;display:inline;overflow:visible;visibility:visible;opacity:1;isolation:auto;mix-blend-mode:normal;color-interpolation:sRGB;color-interpolation-filters:linearRGB;solid-color:#000000;solid-opacity:1;vector-effect:none;fill:#09455d;fill-opacity:1;fill-rule:evenodd;stroke:none;stroke-width:1.06500006;stroke-linecap:round;stroke-linejoin:round;stroke-miterlimit:4;stroke-dasharray:none;stroke-dashoffset:0;stroke-opacity:1;color-rendering:auto;image-rendering:auto;shape-rendering:auto;text-rendering:auto;enable-background:accumulate"
           d="m 1.6972634,47.627454 a 0.53283092,0.53283092 0 1 0 0.082,1.0625 c 0,0 0.44208,-0.0348 0.95703,0.25782 l -0.0371,-0.0254 c 0.32523,0.22283 0.65811,0.26488 0.91992,0.2871 0.26181,0.0222 0.47461,0.006 0.47461,0.006 a 0.53290765,0.53290765 0 1 0 -0.084,-1.0625 c 0,0 -0.12898,0.0107 -0.30079,-0.004 -0.1718,-0.0146 -0.36317,-0.0727 -0.4082,-0.10352 a 0.53255328,0.53255328 0 0 0 -0.0371,-0.0254 c -0.79373,-0.45105 -1.5664,-0.39258 -1.5664,-0.39258 z"
           id="path4572"
           inkscape:connector-curvature="0"
           inkscape:export-xdpi="96"
           inkscape:export-ydpi="96" />
        <path
           style="color:#000000;font-style:normal;font-variant:normal;font-weight:normal;font-stretch:normal;font-size:medium;line-height:normal;font-family:sans-serif;font-variant-ligatures:normal;font-variant-position:normal;font-variant-caps:normal;font-variant-numeric:normal;font-variant-alternates:normal;font-feature-settings:normal;text-indent:0;text-align:start;text-decoration:none;text-decoration-line:none;text-decoration-style:solid;text-decoration-color:#000000;letter-spacing:normal;word-spacing:normal;text-transform:none;writing-mode:lr-tb;direction:ltr;text-orientation:mixed;dominant-baseline:auto;baseline-shift:baseline;text-anchor:start;white-space:normal;shape-padding:0;clip-rule:nonzero;display:inline;overflow:visible;visibility:visible;opacity:1;isolation:auto;mix-blend-mode:normal;color-interpolation:sRGB;color-interpolation-filters:linearRGB;solid-color:#000000;solid-opacity:1;vector-effect:none;fill:#09455d;fill-opacity:1;fill-rule:evenodd;stroke:none;stroke-width:1.06500006;stroke-linecap:round;stroke-linejoin:round;stroke-miterlimit:4;stroke-dasharray:none;stroke-dashoffset:0;stroke-opacity:1;color-rendering:auto;image-rendering:auto;shape-rendering:auto;text-rendering:auto;enable-background:accumulate"
           d="m 6.1249934,49.990744 c -0.68777,-0.0275 -1.16377,0.25163 -1.56641,0.60546 a 0.53255328,0.53255328 0 0 0 -0.0195,0.0176 c -0.003,0.003 -0.30684,0.13904 -0.6289,0.13672 -0.32207,-0.002 -0.64582,-0.11828 -0.73633,-0.19922 a 0.53255328,0.53255328 0 0 0 -0.0293,-0.0234 c -0.72385,-0.55934 -1.56836,-0.3789 -1.56836,-0.3789 a 0.53280734,0.53280734 0 1 0 0.20899,1.04492 c 0,0 0.39341,-0.0681 0.70898,0.17578 l -0.0293,-0.0234 c 0.41149,0.36792 0.93718,0.46515 1.4375,0.46875 0.50033,0.004 0.99211,-0.0605 1.37891,-0.43554 l -0.0195,0.0176 c 0.37694,-0.33124 0.3269,-0.36153 0.82031,-0.34179 0.0911,0.004 0.37251,0.12414 0.66992,0.30273 0.29629,0.17792 0.57708,0.42421 1.0625,0.45117 0.42129,0.0418 1.28644,0.13739 1.9375,-0.51367 0.1995,-0.1995 0.5247396,-0.15115 0.9042996,-0.13281 5.6e-4,3e-5 0.001,-3e-5 0.002,0 0.20663,0.0124 0.33504,0.10025 0.60742,0.26367 0.27313,0.16387 0.69877,0.37713 1.24805,0.33789 a 0.53261447,0.53261447 0 1 0 -0.0762,-1.0625 c -0.27753,0.0198 -0.38874,-0.0477 -0.625,-0.18945 -0.23626,-0.14175 -0.58871,-0.38469 -1.0957,-0.41406 a 0.53255328,0.53255328 0 0 0 -0.006,0 c -0.11448,-0.005 -1.0627996,-0.20478 -1.7128896,0.44531 -0.28016,0.28016 -0.67618,0.24874 -1.09961,0.20703 a 0.53255328,0.53255328 0 0 0 -0.0254,-0.002 c 0.0341,0.002 -0.26185,-0.11516 -0.57422,-0.30274 -0.31237,-0.18758 -0.67439,-0.43512 -1.17383,-0.45507 z"
           id="path4574"
           inkscape:connector-curvature="0"
           inkscape:export-xdpi="96"
           inkscape:export-ydpi="96" />
      </g>
    </g>
  </g>
</svg>
